<?xml version="1.0" encoding="UTF-8"?>
<svg id="Layer_1" data-name="Layer 1" xmlns="http://www.w3.org/2000/svg" viewBox="0 0 119.93 224.81">
  <defs>
    <style>
      .cls-1 {
        fill: #f3ea13;
      }

      .cls-1, .cls-2, .cls-3 {
        stroke: #fff;
        stroke-miterlimit: 10;
      }

      .cls-2 {
        fill: #3d8157;
      }

      .cls-3 {
        fill: #764843;
      }
    </style>
  </defs>
  <g id="Lemon_icon" data-name="Lemon icon">
    <path class="cls-1" d="M11.45,158.21C-20.68,120.11,25.1,49.02,56.2,50.15c29.32,1.07,84.72,54.01,54.45,98.89-37.67,55.84-41.03,57.72-40.29,69.1.55,8.41-15.01,8.14-15.01-.29,0-9.5,2.7-4.4-43.9-59.64Z"/>
    <path class="cls-2" d="M55.82,25.69c0-3.04,14.24-15.55,31.81-15.55s31.81,12.51,31.81,15.55-14.24,12.68-31.81,12.68-31.81-9.64-31.81-12.68Z"/>
    <path class="cls-3" d="M53.12,48.65L46.97,3.18c0-.82,6.95-2.65,7.49-2.68h.32c1.27.11,1.02.67,1.02,1.49v46.66c0,.82-.6,1.49-1.35,1.49h0c-.74,0-1.35-.67-1.35-1.49Z"/>
  </g>
</svg>