<?xml version="1.0" encoding="UTF-8"?>
<svg id="Layer_1" data-name="Layer 1" xmlns="http://www.w3.org/2000/svg" viewBox="0 0 65 165">
  <defs>
    <style>
      .cls-1 {
        fill: #ee2524;
      }

      .cls-1, .cls-2 {
        stroke: #010101;
        stroke-miterlimit: 10;
      }

      .cls-2 {
        fill: #58b947;
      }
    </style>
  </defs>
  <g id="Red_chilli_icon" data-name="Red chilli icon">
    <path class="cls-1" d="M25.31,99.71c-4.61-30.39-18.73-73.17,15.44-73.17s24.67,39.92,15.44,73.17c-9.28,33.44-35.99,57.41-46.87,63.92-2.48,1.49-10.23,1.15-8.61-1.69,7.08-12.41,29.67-28.76,24.59-62.22Z"/>
    <path class="cls-2" d="M31.71,23.21C38.11,17.93,37.33.37,41.23.5s3.96,16.64,10.21,22.71c6.21,6.03,3.48,7.45-.93,5.07-3.09-1.67-12.74-2.76-15.47-1.28-5.81,3.15-11.19,2.72-3.31-3.79Z"/>
  </g>
</svg>